<?xml version="1.0" encoding="utf-8"?>
<!-- Generator: Adobe Illustrator 16.0.0, SVG Export Plug-In . SVG Version: 6.00 Build 0)  -->
<!DOCTYPE svg PUBLIC "-//W3C//DTD SVG 1.1//EN" "http://www.w3.org/Graphics/SVG/1.1/DTD/svg11.dtd">
<svg version="1.1" id="图层_1" xmlns="http://www.w3.org/2000/svg" xmlns:xlink="http://www.w3.org/1999/xlink" x="0px" y="0px"
	 width="48px" height="48px" viewBox="0 0 48 48" enable-background="new 0 0 48 48" xml:space="preserve">
<rect x="53.375" fill="#5C5D5D" width="48" height="48"/>
<g>
	<path fill="#FFFFFF" stroke="#FFFFFF" stroke-miterlimit="10" d="M-59.549,42.007h0.007c1.402,0,2.571-1.171,2.571-2.571
		c0-1.402-1.169-2.571-2.571-2.571h-0.007c-1.402,0-2.572,1.169-2.572,2.571C-62.121,40.836-60.951,42.007-59.549,42.007z"/>
	<path fill="#FFFFFF" stroke="#FFFFFF" stroke-miterlimit="10" d="M-47.959,41.364c10.213,0,20.426,0,30.639,0
		c2.338,0,2.338-3.857,0-3.857c-10.213,0-20.426,0-30.639,0C-50.297,37.507-50.297,41.364-47.959,41.364z"/>
	<line fill="#0C68AC" stroke="#FFFFFF" stroke-miterlimit="10" x1="-59.549" y1="24.062" x2="-59.542" y2="24.062"/>
	<path fill="#FFFFFF" stroke="#FFFFFF" stroke-miterlimit="10" d="M-59.549,26.635h0.007c1.402,0,2.571-1.171,2.571-2.573
		c0-1.401-1.169-2.571-2.571-2.571h-0.007c-1.402,0-2.572,1.17-2.572,2.571C-62.121,25.464-60.951,26.635-59.549,26.635z"/>
	<line fill="#0C68AC" stroke="#FFFFFF" stroke-miterlimit="10" x1="-50.021" y1="24.062" x2="-17.433" y2="24.062"/>
	<path fill="#FFFFFF" stroke="#FFFFFF" stroke-miterlimit="10" d="M-47.959,25.992c10.213,0,20.426,0,30.639,0
		c2.338,0,2.338-3.859,0-3.859c-10.213,0-20.426,0-30.639,0C-50.297,22.133-50.297,25.992-47.959,25.992z"/>
	<path fill="#FFFFFF" stroke="#FFFFFF" stroke-miterlimit="10" d="M-59.549,11.136h0.007c1.402,0,2.571-1.169,2.571-2.571
		c0-1.401-1.169-2.571-2.571-2.571h-0.007c-1.402,0-2.572,1.17-2.572,2.571C-62.121,9.967-60.951,11.136-59.549,11.136z"/>
	<path fill="#FFFFFF" stroke="#FFFFFF" stroke-miterlimit="10" d="M-47.959,10.494c10.213,0,20.426,0,30.639,0
		c2.338,0,2.338-3.857,0-3.857c-10.213,0-20.426,0-30.639,0C-50.297,6.637-50.297,10.494-47.959,10.494z"/>
</g>
<g>
	<line fill="#FFFFFF" stroke="#FFFFFF" stroke-miterlimit="10" x1="23.622" y1="3.097" x2="23.622" y2="44.902"/>
	<path fill="#FFFFFF" stroke="#FFFFFF" stroke-miterlimit="10" d="M21.63,2.718c0,14.26,0,28.521,0,42.781
		c0,2.628,3.984,2.628,3.984,0c0-14.26,0-28.521,0-42.781C25.614,0.089,21.63,0.089,21.63,2.718z"/>
	<line fill="#FFFFFF" stroke="#FFFFFF" stroke-miterlimit="10" x1="2.513" y1="23.269" x2="23.622" y2="23.269"/>
	<path fill="#FFFFFF" stroke="#FFFFFF" stroke-miterlimit="10" d="M2.513,25.262c7.036,0,14.073,0,21.109,0
		c2.569,0,2.569-3.984,0-3.984c-7.037,0-14.073,0-21.109,0C-0.057,21.277-0.057,25.262,2.513,25.262z"/>
	<line fill="#FFFFFF" stroke="#FFFFFF" stroke-miterlimit="10" x1="31.98" y1="23.269" x2="45.486" y2="23.269"/>
	<path fill="#FFFFFF" stroke="#FFFFFF" stroke-miterlimit="10" d="M33.669,25.262c4.01,0,8.021,0,12.029,0
		c2.288,0,2.288-3.984,0-3.984c-4.009,0-8.02,0-12.029,0C31.381,21.277,31.381,25.262,33.669,25.262z"/>
</g>
</svg>
