<?xml version="1.0" encoding="utf-8"?>
<!-- Generator: Adobe Illustrator 16.0.0, SVG Export Plug-In . SVG Version: 6.00 Build 0)  -->
<!DOCTYPE svg PUBLIC "-//W3C//DTD SVG 1.1//EN" "http://www.w3.org/Graphics/SVG/1.1/DTD/svg11.dtd">
<svg version="1.1" id="图层_1" xmlns="http://www.w3.org/2000/svg" xmlns:xlink="http://www.w3.org/1999/xlink" x="0px" y="0px"
	 width="48px" height="48px" viewBox="0 0 48 48" enable-background="new 0 0 48 48" xml:space="preserve">
<rect x="59.5" fill="#5C5D5D" width="48" height="48"/>
<g>
	<g>
		<g>
			<path fill="#FFFFFF" d="M29.161,0.193c-9.043,0-18.086,0-27.13,0c-1.022,0-1.875,0.853-1.875,1.875c0,14.686,0,29.371,0,44.057
				C0.156,47.147,1.009,48,2.031,48c13.22,0,26.44,0,39.661,0c1.022,0,1.875-0.853,1.875-1.875c0-7.343,0-14.686,0-22.029
				c0-2.418-3.75-2.418-3.75,0c0,7.343,0,14.686,0,22.029c0.625-0.625,1.25-1.25,1.875-1.875c-13.221,0-26.441,0-39.661,0
				c0.625,0.625,1.25,1.25,1.875,1.875c0-14.686,0-29.371,0-44.057c-0.625,0.625-1.25,1.25-1.875,1.875c9.043,0,18.086,0,27.13,0
				C31.579,3.943,31.579,0.193,29.161,0.193L29.161,0.193z"/>
		</g>
	</g>
	<g>
		<g>
			<path fill="#FFFFFF" d="M44.643,0.743c-10.96,10.689-21.919,21.379-32.879,32.068c-1.734,1.691,0.92,4.341,2.651,2.652
				c10.96-10.69,21.92-21.379,32.88-32.069C49.028,1.704,46.374-0.946,44.643,0.743L44.643,0.743z"/>
		</g>
	</g>
</g>
</svg>
