<?xml version="1.0" encoding="utf-8"?>
<!-- Generator: Adobe Illustrator 17.0.0, SVG Export Plug-In . SVG Version: 6.00 Build 0)  -->
<!DOCTYPE svg PUBLIC "-//W3C//DTD SVG 1.1//EN" "http://www.w3.org/Graphics/SVG/1.1/DTD/svg11.dtd">
<svg version="1.1" id="图层_1" xmlns="http://www.w3.org/2000/svg" xmlns:xlink="http://www.w3.org/1999/xlink" x="0px" y="0px"
	 width="15.1px" height="20px" viewBox="0 0 15.1 20" enable-background="new 0 0 15.1 20" xml:space="preserve">
<path fill="#8ECC95" d="M13.1,0H2C0.9,0,0,0.9,0,2v16c0,1.1,0.9,2,2,2h11.1c1.1,0,2-0.9,2-2v-2.7c0-0.5-0.5-1-1-1c0.6,0,1,0.4,1,1
	V4.7c0-0.6-0.5-1-1-1c0.6,0,1,0.4,1,1V2C15.1,0.9,14.2,0,13.1,0z M2,18v-1.7h11.1V18H2z M2,14.3V5.7h11.1v8.6H2z M2,3.7V2h11.1v1.7
	H2z"/>
</svg>
