<?xml version="1.0" encoding="utf-8"?>
<!-- Generator: Adobe Illustrator 17.0.0, SVG Export Plug-In . SVG Version: 6.00 Build 0)  -->
<!DOCTYPE svg PUBLIC "-//W3C//DTD SVG 1.1//EN" "http://www.w3.org/Graphics/SVG/1.1/DTD/svg11.dtd">
<svg version="1.1" id="图层_1" xmlns="http://www.w3.org/2000/svg" xmlns:xlink="http://www.w3.org/1999/xlink" x="0px" y="0px"
	 width="17.6px" height="20px" viewBox="0 0 17.6 20" enable-background="new 0 0 17.6 20" xml:space="preserve">
<path fill="#8ECC95" d="M17.3,2.7l-2.4-2.4C14.7,0.1,14.4,0,14.2,0c-0.3,0-0.5,0.1-0.7,0.3c-0.4,0.4-0.4,1,0,1.4l1.7,1.7l-1.3,1.3
	L12.3,3c-0.2-0.2-0.5-0.3-0.8-0.3S11,2.8,10.8,3c-0.4,0.4-0.4,1,0,1.4l1.7,1.7L9.1,9.5c-1-0.7-2.2-1-3.3-1c-1.5,0-3,0.6-4.1,1.7
	c-1.1,1.1-1.7,2.6-1.7,4c0,1.5,0.6,3,1.7,4.1C2.8,19.4,4.3,20,5.8,20s3-0.6,4.1-1.7c1.1-1.1,1.7-2.6,1.7-4.1
	c0-1.169-0.399-2.349-1.067-3.333L17.3,4.1c0.2-0.2,0.3-0.4,0.3-0.7C17.6,3.1,17.5,2.9,17.3,2.7z M8.6,16.9C7.7,17.6,6.7,18,5.8,18
	c-1,0-1.9-0.4-2.7-1.1C2.4,16.2,2,15.2,2,14.2s0.4-1.9,1.1-2.7c0.7-0.7,1.7-1.1,2.7-1.1s1.9,0.4,2.7,1.1
	c0.06,0.06,0.137,0.092,0.209,0.134C9.335,12.325,9.7,13.258,9.7,14.2C9.7,15.2,9.3,16.1,8.6,16.9z"/>
</svg>
