<?xml version="1.0" encoding="utf-8"?>
<!-- Generator: Adobe Illustrator 16.0.0, SVG Export Plug-In . SVG Version: 6.00 Build 0)  -->
<!DOCTYPE svg PUBLIC "-//W3C//DTD SVG 1.1//EN" "http://www.w3.org/Graphics/SVG/1.1/DTD/svg11.dtd">
<svg version="1.1" id="图层_1" xmlns="http://www.w3.org/2000/svg" xmlns:xlink="http://www.w3.org/1999/xlink" x="0px" y="0px"
	 width="48px" height="48px" viewBox="0 0 48 48" enable-background="new 0 0 48 48" xml:space="preserve">
<rect x="58" fill="#5C5D5D" width="48" height="48"/>
<g>
	<path fill="#FFFFFF" stroke="#FFFFFF" stroke-miterlimit="10" d="M3.201,42.007h0.007c1.402,0,2.571-1.171,2.571-2.571
		c0-1.402-1.169-2.571-2.571-2.571H3.201c-1.402,0-2.572,1.169-2.572,2.571C0.629,40.836,1.799,42.007,3.201,42.007z"/>
	<path fill="#FFFFFF" stroke="#FFFFFF" stroke-miterlimit="10" d="M14.791,41.364c10.213,0,20.426,0,30.639,0
		c2.338,0,2.338-3.857,0-3.857c-10.213,0-20.426,0-30.639,0C12.453,37.507,12.453,41.364,14.791,41.364z"/>
	<line fill="#0C68AC" stroke="#FFFFFF" stroke-miterlimit="10" x1="3.201" y1="24.062" x2="3.208" y2="24.062"/>
	<path fill="#FFFFFF" stroke="#FFFFFF" stroke-miterlimit="10" d="M3.201,26.635h0.007c1.402,0,2.571-1.171,2.571-2.573
		c0-1.401-1.169-2.571-2.571-2.571H3.201c-1.402,0-2.572,1.17-2.572,2.571C0.629,25.464,1.799,26.635,3.201,26.635z"/>
	<line fill="#0C68AC" stroke="#FFFFFF" stroke-miterlimit="10" x1="12.729" y1="24.062" x2="45.317" y2="24.062"/>
	<path fill="#FFFFFF" stroke="#FFFFFF" stroke-miterlimit="10" d="M14.791,25.992c10.213,0,20.426,0,30.639,0
		c2.338,0,2.338-3.859,0-3.859c-10.213,0-20.426,0-30.639,0C12.453,22.133,12.453,25.992,14.791,25.992z"/>
	<path fill="#FFFFFF" stroke="#FFFFFF" stroke-miterlimit="10" d="M3.201,11.136h0.007c1.402,0,2.571-1.169,2.571-2.571
		c0-1.401-1.169-2.571-2.571-2.571H3.201c-1.402,0-2.572,1.17-2.572,2.571C0.629,9.967,1.799,11.136,3.201,11.136z"/>
	<path fill="#FFFFFF" stroke="#FFFFFF" stroke-miterlimit="10" d="M14.791,10.494c10.213,0,20.426,0,30.639,0
		c2.338,0,2.338-3.857,0-3.857c-10.213,0-20.426,0-30.639,0C12.453,6.637,12.453,10.494,14.791,10.494z"/>
</g>
</svg>
